<?xml version="1.0" encoding="utf-8"?>
<!-- Generator: Adobe Illustrator 26.3.1, SVG Export Plug-In . SVG Version: 6.00 Build 0)  -->
<svg version="1.1" id="Layer_1" xmlns="http://www.w3.org/2000/svg" xmlns:xlink="http://www.w3.org/1999/xlink" x="0px" y="0px"
	 viewBox="0 0 368 280" style="enable-background:new 0 0 368 280;" xml:space="preserve">
<style type="text/css">
	.st0{fill:#000032;}
	.st1{fill:#003200;}
</style>
<g>
	<g>
		<path class="st0" d="M194.65,91.93c-21.39-18.43-47.11-40.6-65.09-58.26l-0.62,0.65c12.33,21.38,24.71,44.89,37.79,71.56
			l46.1,93.66l-13.7,14.29l-92.14-43.05c-27.22-12.8-51.66-25.01-72.93-37.51l-0.42,0.43c17.77,17.87,41.2,42.42,61.83,64.69
			l58.84,63.9l-17.23,17.97L0.88,130.16l23.05-24.04l94.47,42.79c23.79,11.17,44.59,21.55,63.27,32.41l0.62-0.65
			c-11.2-17.8-22.24-38.36-34.41-62.51l-45.68-93.67l23.05-24.04L279.92,131.3l-17.65,18.41L194.65,91.93z"/>
	</g>
	<g>
		<path class="st1" d="M258.72,34.72h108.9v26.57h-82.8v81.52h76.5V169h-76.5v111h-26.1V34.72z"/>
	</g>
</g>
</svg>
